<?xml version="1.0" encoding="UTF-8" standalone="no"?>
<svg
   viewBox="0 0 24 24"
   width="32"
   height="32"
   version="1.1"
   id="svg1"
   sodipodi:docname="calendar-2-line.svg"
   inkscape:version="1.4.2 (f4327f4, 2025-05-13)"
   inkscape:export-filename="calendar-2-line.png"
   inkscape:export-xdpi="96"
   inkscape:export-ydpi="96"
   xmlns:inkscape="http://www.inkscape.org/namespaces/inkscape"
   xmlns:sodipodi="http://sodipodi.sourceforge.net/DTD/sodipodi-0.dtd"
   xmlns="http://www.w3.org/2000/svg"
   xmlns:svg="http://www.w3.org/2000/svg">
  <defs
     id="defs1" />
  <sodipodi:namedview
     id="namedview1"
     pagecolor="#ffffff"
     bordercolor="#000000"
     borderopacity="0.25"
     inkscape:showpageshadow="2"
     inkscape:pageopacity="0.0"
     inkscape:pagecheckerboard="0"
     inkscape:deskcolor="#d1d1d1"
     showgrid="true"
     inkscape:zoom="18.01"
     inkscape:cx="33.953359"
     inkscape:cy="18.350916"
     inkscape:window-width="1920"
     inkscape:window-height="1017"
     inkscape:window-x="-8"
     inkscape:window-y="-8"
     inkscape:window-maximized="1"
     inkscape:current-layer="svg1">
    <inkscape:grid
       id="grid1"
       units="px"
       originx="0"
       originy="0"
       spacingx="0.75"
       spacingy="0.75"
       empcolor="#0099e5"
       empopacity="0.30196078"
       color="#0099e5"
       opacity="0.14901961"
       empspacing="5"
       enabled="true"
       visible="true" />
  </sodipodi:namedview>
  <path
     fill="#ffffff"
     d="M 9,0.75 V 3 h 6 V 0.75 h 2.25 V 3 l 5.25,0.06225 c 0,0 0.06802,15.672547 0,19.43775 H 1.5 V 3 L 6.7244171,2.9708549 6.75,0.75 Z M 20.25,12 H 3.75 v 8.25 h 16.5 z M 8.2500952,14.25 8.2499048,16.5 h -2.25 l 1.904e-4,-2.25 z m 5.2499998,0 -1.9e-4,2.25 h -3 l 1.9e-4,-2.25 z M 18,14.25 v 2.25 h -2.25 v -2.25 z m -11.25,-9 h -3 v 4.5 h 16.5 v -4.5 h -3 V 7.5 H 15 V 5.25 H 9 V 7.5 H 6.75 Z"
     id="path1"
     style="fill:#ffffff;stroke-width:1.06354"
     sodipodi:nodetypes="cccccccccccccccccccccccccccccccccccccccccccccc" />
</svg>
